<?xml version="1.0" encoding="UTF-8"?>
<svg id="Capa_1" data-name="Capa 1" xmlns="http://www.w3.org/2000/svg" viewBox="0 0 1791.68 440.73">
  <defs>
    <style>
      .cls-1 {
        font-family: Oswald-SemiBold, Oswald;
        font-size: 335.37px;
        font-variation-settings: ';
        font-weight: 600;
      }

      .cls-2 {
        letter-spacing: -.02em;
      }

      .cls-3 {
        fill: #fff;
        font-family: Lato-Regular, Lato;
        font-size: 380.23px;
      }

      .cls-4 {
        letter-spacing: 0em;
      }

      .cls-5 {
        fill: #fe6517;
      }
    </style>
  </defs>
  <text class="cls-1" transform="translate(0 326.04) scale(.94 1)"><tspan x="0" y="0">TICKET</tspan></text>
  <text class="cls-3" transform="translate(839.22 326.33) scale(1.03 1)"><tspan x="0" y="0">P</tspan><tspan class="cls-2" x="232.32" y="0">R</tspan><tspan class="cls-4" x="468.44" y="0">O</tspan></text>
  <path class="cls-5" d="m1645.35,135.11c-4.36.82-8.82-1.87-10.03-6.48-4.22-15.97-5.03-29.39-5.57-40.29-1.02-20.54,3.16-34.21-1.65-56.21-2.6-11.89-7.78-16.01-11.33-17.33-9.33-3.46-20.51,2.38-23.73,5.06-5.32,4.43-9.7,9.1-14.13,16.23-2.35,3.77-11.18,20.81-11.04,47.97.08,13.87,2.61,49.08,4.09,57.5.82,4.66-1.28,8.96-5.11,11.21-8.5,4.98-13.96,7.2-24.48,12.28-12.84,6.21-21.41,11.66-27,16.67-9.4,8.43-16.64,15.72-20.8,27.76-1.07,3.09-1.8,12.9,3.25,19.98,5.36,7.52,13.66,7.54,17.2,7.26,10-.81,17.64-5.67,23.36-9.09,6.86-4.1,16.66-10.3,32.97-14.52,5.17-1.34,10.28,2.5,10.95,8.21,1.42,12.18,3.99,25.69,6.86,39.15,3.91,18.38,9.25,36.58,13.21,44.94,3.63,7.66,7.64,15.31,14.97,20.13,7.68,5.06,18.15,5.77,24.23,4.41,6.17-1.38,12.44-4.99,16.89-9.52,4.14-4.21,10.64-14.81,6.88-35.16-3.64-19.7-6.07-27.28-9.74-45.97-2.17-11.06-3.97-21.73-5.45-31.96-.81-5.59,3.01-10.73,8.22-11.15,13.18-1.06,23.46-.45,31.24.62,6.27.87,15.8,2.37,27.11,7.09,17.29,7.21,21.36,11.66,32.72,12.45,10.01.7,19.43-4.99,22.69-7.77,8.31-7.09,11.21-12.01,13.89-17.7,3.04-6.46,6.74-21.15,5.39-29.62-1.86-11.65-8.38-17.94-12.39-20.69-6.61-4.52-17.32-8.45-37.62-10.6-36.44-3.87-63.29.47-69.96,1.18-10.22,1.08-19.06,2.67-26.06,3.99Z"/>
</svg>